<svg width="57" height="48" viewBox="0 0 57 48" fill="none" xmlns="http://www.w3.org/2000/svg">
<path d="M55.664 46V2.68799C55.664 2.1357 55.2162 1.68799 54.664 1.68799H39.0243C38.6019 1.68799 38.225 1.95346 38.0827 2.35123L29.5213 26.2894C29.2065 27.1698 27.9632 27.175 27.641 26.2972L18.8485 2.34341C18.704 1.94969 18.3292 1.68799 17.9098 1.68799H2.19995C1.64767 1.68799 1.19995 2.1357 1.19995 2.68799V46C1.19995 46.5523 1.64767 47 2.19995 47H14.408C14.9602 47 15.408 46.5523 15.408 46V31.0359C15.408 29.8887 17.025 29.6447 17.3634 30.7409L22.1663 46.295C22.2957 46.7141 22.6831 47 23.1218 47H33.8061C34.2448 47 34.6322 46.7141 34.7616 46.295L39.5645 30.7409C39.9029 29.6447 41.52 29.8887 41.52 31.0359V46C41.52 46.5523 41.9677 47 42.52 47H54.664C55.2162 47 55.664 46.5523 55.664 46Z" fill="black" stroke="black" stroke-width="2"/>
</svg>
