<svg width="244" height="49" viewBox="0 0 244 49" fill="none" xmlns="http://www.w3.org/2000/svg">
<path d="M60.667 29.08C60.667 25.4107 61.3497 22.1893 62.715 19.416C64.123 16.6427 66.0217 14.5093 68.411 13.016C70.8003 11.5227 73.467 10.776 76.411 10.776C78.9283 10.776 81.1257 11.288 83.003 12.312C83.7741 12.7233 84.473 13.1861 85.0996 13.7006C85.8788 14.3405 87.419 13.8193 87.419 12.811V12.288C87.419 11.7357 87.8667 11.288 88.419 11.288H97.363C97.9153 11.288 98.363 11.7357 98.363 12.288V46C98.363 46.5523 97.9153 47 97.363 47H88.419C87.8667 47 87.419 46.5523 87.419 46V45.357C87.419 44.3583 85.9323 43.8495 85.1652 44.4891C84.501 45.0431 83.7589 45.5387 82.939 45.976C81.0617 47 78.8643 47.512 76.347 47.512C73.4457 47.512 70.8003 46.7653 68.411 45.272C66.0217 43.736 64.123 41.5813 62.715 38.808C61.3497 35.992 60.667 32.7493 60.667 29.08ZM87.419 29.144C87.419 26.4133 86.651 24.2587 85.115 22.68C83.6217 21.1013 81.787 20.312 79.611 20.312C77.435 20.312 75.579 21.1013 74.043 22.68C72.5497 24.216 71.803 26.3493 71.803 29.08C71.803 31.8107 72.5497 33.9867 74.043 35.608C75.579 37.1867 77.435 37.976 79.611 37.976C81.787 37.976 83.6217 37.1867 85.115 35.608C86.651 34.0293 87.419 31.8747 87.419 29.144Z" stroke="black" stroke-width="2"/>
<path d="M125.48 10.904C129.662 10.904 132.99 12.2693 135.465 15C137.982 17.688 139.241 21.4 139.241 26.136V46C139.241 46.5523 138.793 47 138.241 47H129.361C128.808 47 128.361 46.5523 128.361 46V27.608C128.361 25.2187 127.742 23.3627 126.505 22.04C125.267 20.7173 123.603 20.056 121.512 20.056C119.422 20.056 117.758 20.7173 116.52 22.04C115.283 23.3627 114.664 25.2187 114.664 27.608V46C114.664 46.5523 114.217 47 113.664 47H104.72C104.168 47 103.72 46.5523 103.72 46V12.288C103.72 11.7357 104.168 11.288 104.72 11.288H113.664C114.217 11.288 114.664 11.7357 114.664 12.288V12.8616C114.664 13.8384 116.065 14.3417 116.833 13.7374C117.525 13.1924 118.295 12.7173 119.144 12.312C121.022 11.3733 123.134 10.904 125.48 10.904Z" stroke="black" stroke-width="2"/>
<path d="M179.23 28.568C179.23 29.3163 179.195 30.0874 179.127 30.8813C179.083 31.3873 178.654 31.768 178.146 31.768H155.349C154.767 31.768 154.302 32.2656 154.4 32.8399C154.691 34.5441 155.351 35.8935 156.382 36.888C157.662 38.04 159.219 38.616 161.053 38.616C163.55 38.616 165.351 37.6533 166.456 35.728C166.65 35.3901 166.999 35.16 167.389 35.16H177.111C177.763 35.16 178.242 35.7755 178.031 36.3929C177.397 38.2524 176.431 39.9534 175.133 41.496C173.597 43.3733 171.656 44.8453 169.31 45.912C166.963 46.9787 164.339 47.512 161.438 47.512C157.939 47.512 154.824 46.7653 152.094 45.272C149.363 43.7787 147.229 41.6453 145.693 38.872C144.157 36.0987 143.389 32.856 143.389 29.144C143.389 25.432 144.136 22.1893 145.63 19.416C147.166 16.6427 149.299 14.5093 152.029 13.016C154.76 11.5227 157.896 10.776 161.438 10.776C164.894 10.776 167.966 11.5013 170.654 12.952C173.342 14.4027 175.432 16.472 176.926 19.16C178.462 21.848 179.23 24.984 179.23 28.568ZM167.029 25.688C167.582 25.688 168.039 25.238 167.964 24.6908C167.772 23.2742 167.154 22.1132 166.109 21.208C164.829 20.0987 163.23 19.544 161.31 19.544C159.475 19.544 157.917 20.0773 156.637 21.144C155.651 21.9944 154.963 23.1297 154.573 24.5497C154.411 25.14 154.885 25.688 155.497 25.688H167.029Z" stroke="black" stroke-width="2"/>
<path d="M194.027 14.5C194.027 14.9717 194.707 15.1672 195.007 14.8028C197.664 11.57 201.657 11.2992 206.902 11.2858C207.818 11.2834 208.279 12.445 207.664 13.1231C205.353 15.6716 203.097 19.1385 202.166 23.1908C202.059 23.658 201.65 24.0005 201.171 24.0238C195.624 24.2928 194.027 26.7472 194.027 32.424V46C194.027 46.5523 193.579 47 193.027 47H184.083C183.531 47 183.083 46.5523 183.083 46V12.288C183.083 11.7357 183.531 11.288 184.083 11.288H193.027C193.579 11.288 194.027 11.7357 194.027 12.288V14.5V14.5Z" stroke="black" stroke-width="2"/>
<path d="M224.154 47.512C220.655 47.512 217.498 46.7653 214.682 45.272C211.909 43.7787 209.711 41.6453 208.09 38.872C206.511 36.0987 205.722 32.856 205.722 29.144C205.722 25.4747 206.533 22.2533 208.154 19.48C209.775 16.664 211.994 14.5093 214.81 13.016C217.626 11.5227 220.783 10.776 224.282 10.776C227.781 10.776 230.938 11.5227 233.754 13.016C236.57 14.5093 238.789 16.664 240.41 19.48C242.031 22.2533 242.842 25.4747 242.842 29.144C242.842 32.8133 242.01 36.056 240.346 38.872C238.725 41.6453 236.485 43.7787 233.626 45.272C230.81 46.7653 227.653 47.512 224.154 47.512ZM224.154 38.04C226.245 38.04 228.015 37.272 229.466 35.736C230.959 34.2 231.706 32.0027 231.706 29.144C231.706 26.2853 230.981 24.088 229.53 22.552C228.122 21.016 226.373 20.248 224.282 20.248C222.149 20.248 220.378 21.016 218.97 22.552C217.562 24.0453 216.858 26.2427 216.858 29.144C216.858 32.0027 217.541 34.2 218.906 35.736C220.314 37.272 222.063 38.04 224.154 38.04Z" stroke="black" stroke-width="2"/>
<path d="M55.664 46V2.68799C55.664 2.1357 55.2162 1.68799 54.664 1.68799H39.0243C38.6019 1.68799 38.225 1.95346 38.0827 2.35123L29.5213 26.2894C29.2065 27.1698 27.9632 27.175 27.641 26.2972L18.8485 2.34341C18.704 1.94969 18.3292 1.68799 17.9098 1.68799H2.19995C1.64767 1.68799 1.19995 2.1357 1.19995 2.68799V46C1.19995 46.5523 1.64767 47 2.19995 47H14.408C14.9602 47 15.408 46.5523 15.408 46V31.0359C15.408 29.8887 17.025 29.6447 17.3634 30.7409L22.1663 46.295C22.2957 46.7141 22.6831 47 23.1218 47H33.8061C34.2448 47 34.6322 46.7141 34.7616 46.295L39.5645 30.7409C39.9029 29.6447 41.52 29.8887 41.52 31.0359V46C41.52 46.5523 41.9677 47 42.52 47H54.664C55.2162 47 55.664 46.5523 55.664 46Z" fill="black" stroke="black" stroke-width="2"/>
</svg>
